<?xml version="1.0" encoding="UTF-8"?>
<svg xmlns="http://www.w3.org/2000/svg" viewBox="0 0 235.54 210.18">
  <path d="M179.28,3.79l20.41,18.37-105.24,185.7L27.11,89.2v116.02L0,181.03V4.67l21.57,19.53,72.88,129.14L179.28,3.79ZM54.22,16.33h-29.44L6.71,0h29.44l18.07,16.33ZM31.19,24.2h30.61l48.1,84.83-15.45,27.11L31.19,24.2ZM34.98,210.18v-90.37l27.11,47.81v42.56h-27.11ZM208.43,210.18V78.13l-74.92,132.06h-30.61L208.14,24.2h27.4v185.99h-27.11ZM200.56,108.74v96.49l-27.11-24.2v-24.19l27.11-48.1ZM229.71,16.33h-24.49L186.86,0h24.78l18.08,16.33Z"/>
  <style>
    path {
      fill: #000;
    }
    @media (prefers-color-scheme: dark) {
      path {
        fill: #fff;
      }
    }
  </style>
</svg>